<svg width="75" height="36" viewBox="0 0 75 36" fill="none" xmlns="http://www.w3.org/2000/svg">
<path fill-rule="evenodd" clip-rule="evenodd" d="M0 18C0 13.0294 1.75736 8.7868 5.27208 5.27208C8.7868 1.75736 13.0294 0 18 0H57C61.9706 0 66.2132 1.75736 69.7279 5.27208C73.2426 8.7868 75 13.0294 75 18C75 22.9706 73.2426 27.2132 69.7279 30.7279C66.2132 34.2426 61.9706 36 57 36H18C13.0294 36 8.7868 34.2426 5.27208 30.7279C1.75736 27.2132 0 22.9706 0 18Z" fill="#E5F1FF"/>
<path d="M36.6839 21.6621V19.7764L42.2386 11.0002H45.1917V19.7125H46.8665V21.6621H45.1917V24.0911H42.929V21.6621H36.6839ZM42.9545 19.7125V13.6848H42.8523L39.1129 19.6102V19.7125H42.9545ZM48.9087 24.0911V22.378L53.4535 17.9227C53.8199 17.552 54.1076 17.2494 54.3164 17.0151C54.5252 16.7807 54.7212 16.5314 54.9045 16.2672C55.0877 15.9987 55.2177 15.7452 55.2944 15.5065C55.3711 15.2636 55.4094 15.008 55.4094 14.7395C55.4094 14.1344 55.2049 13.6507 54.7958 13.2885C54.391 12.9263 53.8711 12.7452 53.2361 12.7452C52.5841 12.7452 52.0621 12.9412 51.6701 13.3333C51.2823 13.7253 51.0884 14.2537 51.0884 14.9185H48.832C48.832 14.1046 49.0195 13.3865 49.3945 12.7644C49.7738 12.1379 50.2979 11.6585 50.967 11.3261C51.6402 10.9895 52.4073 10.8212 53.2681 10.8212C53.9158 10.8212 54.5145 10.9171 55.0643 11.1088C55.6182 11.3006 56.0849 11.5648 56.4641 11.9014C56.8476 12.2338 57.1459 12.6344 57.359 13.1031C57.5763 13.5719 57.685 14.0769 57.685 14.6181C57.685 15.1252 57.5891 15.6088 57.3974 16.069C57.2099 16.5293 56.8817 17.0492 56.413 17.6287C55.9485 18.2083 55.2901 18.9071 54.4378 19.7253L52.1814 22.02V22.1095H57.8831V24.0911H48.9087Z" fill="#377DFF"/>
<path fill-rule="evenodd" clip-rule="evenodd" d="M27.5 10.5C25.891 10.5 24.008 12.325 23 13.5C21.992 12.325 20.109 10.5 18.5 10.5C15.651 10.5 14 12.722 14 15.55C14 18.6833 17 22 23 25.5C29 22 32 18.75 32 15.75C32 12.922 30.349 10.5 27.5 10.5Z" fill="#377DFF"/>
</svg>
