<svg width="81" height="80" viewBox="0 0 81 80" fill="none" xmlns="http://www.w3.org/2000/svg">
<circle cx="40.998" cy="40.0002" r="40" fill="#EAFAF3"/>
<path fill-rule="evenodd" clip-rule="evenodd" d="M20.3121 52.2872L32.3711 27.2632L44.4321 52.2872H41.0141L37.9471 45.8052H26.7941L23.7321 52.2872H20.3121ZM32.3711 34.0232L28.1891 42.8772H36.5531L32.3711 34.0232Z" fill="#2DCA8C"/>
<path opacity="0.3" fill-rule="evenodd" clip-rule="evenodd" d="M57.185 52.2872V50.5422C55.6548 51.8835 53.6785 52.6044 51.644 52.5632C49.2574 52.6007 46.959 51.6618 45.2812 49.9642C43.6033 48.2665 42.6916 45.9572 42.757 43.5712C42.6924 41.1859 43.6044 38.8776 45.282 37.1806C46.9595 35.4836 49.2571 34.5451 51.643 34.5822C53.6775 34.5411 55.6538 35.2619 57.184 36.6032V34.8612H60.184V52.2872H57.185ZM51.713 49.7422C53.9051 49.8227 55.9801 48.7523 57.185 46.9192V40.2282C55.9801 38.3952 53.9051 37.3248 51.713 37.4052C50.1063 37.4096 48.5714 38.0714 47.4653 39.2368C46.3593 40.4021 45.7785 41.9695 45.858 43.5742C45.7788 45.1788 46.3597 46.7459 47.4657 47.911C48.5718 49.0762 50.1065 49.7379 51.713 49.7422H51.713Z" fill="#2DCA8C"/>
</svg>
