<svg width="81" height="80" viewBox="0 0 81 80" fill="none" xmlns="http://www.w3.org/2000/svg">
<circle cx="40.998" cy="40.0002" r="40" fill="#FFE3DE"/>
<path opacity="0.3" fill-rule="evenodd" clip-rule="evenodd" d="M26.0441 54.8182H55.4101C56.841 54.8182 58.0011 53.6581 58.0011 52.2272V33.2272C58.0011 31.7962 56.841 30.6362 55.4101 30.6362H37.2721L32.8531 26.2112C32.3662 25.7242 31.7056 25.4511 31.0171 25.4522H26.0441C24.6131 25.4522 23.4531 26.6122 23.4531 28.0432V52.2261C23.4527 52.9132 23.7255 53.5725 24.2114 54.0587C24.6973 54.5449 25.3565 54.8181 26.0438 54.8182H26.0441Z" fill="#FF715B"/>
<path opacity="0.3" fill-rule="evenodd" clip-rule="evenodd" d="M26.9081 51.3632L37.2721 37.5442L47.6371 51.3632H26.9081Z" fill="#FF715B"/>
<path fill-rule="evenodd" clip-rule="evenodd" d="M38.999 51.3633L45.909 42.7263L52.819 51.3633L38.999 51.3633Z" fill="#FF715B"/>
<path opacity="0.3" fill-rule="evenodd" clip-rule="evenodd" d="M51.0911 39.2711C52.522 39.2711 53.6821 38.1111 53.6821 36.6801C53.6821 35.2491 52.522 34.0891 51.0911 34.0891C49.6601 34.0891 48.5001 35.2491 48.5001 36.6801C48.5001 38.1111 49.6601 39.2711 51.0911 39.2711V39.2711Z" fill="#FF715B"/>
</svg>
