<svg width="81" height="80" viewBox="0 0 81 80" fill="none" xmlns="http://www.w3.org/2000/svg">
<circle cx="40.998" cy="40.0002" r="40" fill="#FFF2D8"/>
<path fill-rule="evenodd" clip-rule="evenodd" d="M41.414 50.7921L33.784 54.8031C33.1547 55.1337 32.3923 55.0785 31.8172 54.6607C31.2421 54.2428 30.954 53.5348 31.074 52.8341L32.531 44.3341L26.356 38.3211C25.8469 37.8244 25.664 37.0816 25.8844 36.4053C26.1047 35.729 26.69 35.2366 27.394 35.1351L35.924 33.8961L39.739 26.1651C40.0537 25.5276 40.7031 25.124 41.414 25.124C42.125 25.124 42.7743 25.5276 43.089 26.1651L46.904 33.8951L55.434 35.1341C56.1375 35.2365 56.7219 35.7293 56.9416 36.4055C57.1612 37.0816 56.978 37.8238 56.469 38.3201L50.297 44.3371L51.754 52.8371C51.874 53.5378 51.5859 54.2458 51.0108 54.6637C50.4357 55.0815 49.6733 55.1367 49.044 54.8061L41.414 50.7921Z" fill="#FFBE3D"/>
</svg>
