<svg width="81" height="80" viewBox="0 0 81 80" fill="none" xmlns="http://www.w3.org/2000/svg">
<circle cx="40.998" cy="40.0002" r="40" fill="#EAFAF3"/>
<path opacity="0.3" fill-rule="evenodd" clip-rule="evenodd" d="M53.5691 33.1011C50.9888 33.1011 48.8971 31.0094 48.8971 28.4291C48.8971 25.8488 50.9888 23.7571 53.5691 23.7571C56.1493 23.7571 58.2411 25.8488 58.2411 28.4291C58.2411 31.0094 56.1493 33.1011 53.5691 33.1011H53.5691ZM53.5691 57.3941C50.9888 57.3941 48.8971 55.3024 48.8971 52.7221C48.8971 50.1418 50.9888 48.0501 53.5691 48.0501C56.1493 48.0501 58.2411 50.1418 58.2411 52.7221C58.2411 55.3024 56.1493 57.3941 53.5691 57.3941ZM29.2761 57.3941C26.6958 57.3941 24.6041 55.3024 24.6041 52.7221C24.6041 50.1418 26.6958 48.0501 29.2761 48.0501C31.8563 48.0501 33.9481 50.1418 33.9481 52.7221C33.9481 55.3024 31.8563 57.3941 29.2761 57.3941H29.2761Z" fill="#2DCA8C"/>
<path fill-rule="evenodd" clip-rule="evenodd" d="M29.2761 33.1011C26.6958 33.1011 24.6041 31.0094 24.6041 28.4291C24.6041 25.8488 26.6958 23.7571 29.2761 23.7571C31.8563 23.7571 33.9481 25.8488 33.9481 28.4291C33.9481 31.0094 31.8563 33.1011 29.2761 33.1011ZM39.5541 25.6261H43.2911C44.3062 25.6496 45.1168 26.4792 45.1168 27.4946C45.1168 28.51 44.3062 29.3396 43.2911 29.3631H39.5541C38.539 29.3396 37.7283 28.51 37.7283 27.4946C37.7283 26.4792 38.539 25.6496 39.5541 25.6261L39.5541 25.6261ZM39.5541 51.7881H43.2911C44.3062 51.8116 45.1169 52.6412 45.1169 53.6566C45.1169 54.672 44.3062 55.5016 43.2911 55.5251H39.5541C38.539 55.5016 37.7283 54.672 37.7283 53.6566C37.7283 52.6412 38.539 51.8116 39.5541 51.7881L39.5541 51.7881ZM28.3411 36.8381C29.3733 36.8381 30.2101 37.6749 30.2101 38.7071L30.2101 42.4441C30.1866 43.4592 29.3569 44.2699 28.3416 44.2699C27.3262 44.2699 26.4965 43.4592 26.4731 42.4441L26.4731 38.7071C26.4731 37.6753 27.3092 36.8386 28.3411 36.8381H28.3411ZM54.5031 36.8381C55.5353 36.8381 56.3721 37.6749 56.3721 38.7071V42.4441C56.3486 43.4592 55.5189 44.2698 54.5036 44.2698C53.4882 44.2698 52.6586 43.4592 52.6351 42.4441V38.7071C52.6351 37.6749 53.4718 36.8381 54.5041 36.8381H54.5031Z" fill="#2DCA8C"/>
</svg>
