<svg width="81" height="80" viewBox="0 0 81 80" fill="none" xmlns="http://www.w3.org/2000/svg">
<circle cx="40.998" cy="40.0002" r="40" fill="#E5F1FF"/>
<path opacity="0.3" fill-rule="evenodd" clip-rule="evenodd" d="M27.6811 45.3704L24.2081 56.6584L35.4961 53.1854L27.6811 45.3704Z" fill="#377DFF"/>
<path fill-rule="evenodd" clip-rule="evenodd" d="M41.5751 22.7932C51.1666 22.7932 58.9421 30.5687 58.9421 40.1602C58.9421 49.7517 51.1666 57.5272 41.5751 57.5272C31.9835 57.5272 24.2081 49.7517 24.2081 40.1602C24.2081 30.5687 31.9835 22.7932 41.5751 22.7932H41.5751ZM31.4461 42.8602C34.0681 46.7932 37.4861 48.8432 41.5751 48.8432C45.6641 48.8432 49.0811 46.7932 51.7081 42.8602C52.0646 42.344 52.1151 41.6757 51.8402 41.1118C51.5653 40.5479 51.0076 40.176 50.3813 40.139C49.7551 40.102 49.1575 40.4056 48.8181 40.9332C46.8091 43.9472 44.4381 45.3702 41.5801 45.3702C38.7221 45.3702 36.3511 43.9472 34.3421 40.9332C34.0026 40.4056 33.4051 40.102 32.7788 40.139C32.1525 40.176 31.5949 40.5479 31.32 41.1118C31.045 41.6757 31.0955 42.344 31.4521 42.8602L31.4461 42.8602Z" fill="#377DFF"/>
</svg>
