<svg width="81" height="80" viewBox="0 0 81 80" fill="none" xmlns="http://www.w3.org/2000/svg">
<circle cx="40.998" cy="40.0002" r="40" fill="#E5F1FF"/>
<path fill-rule="evenodd" clip-rule="evenodd" d="M29.025 25.5403H36.317C37.8275 25.5403 39.052 26.7648 39.052 28.2753V30.0983C39.0515 31.6097 37.8266 32.8338 36.3161 32.8333L29.025 32.8333C27.5145 32.8333 26.29 31.6088 26.29 30.0983V28.2753C26.29 26.7648 27.5145 25.5403 29.025 25.5403ZM45.432 47.4163H52.724C54.2345 47.4163 55.459 48.6408 55.459 50.1513V51.9743C55.459 53.4848 54.2345 54.7093 52.724 54.7093H45.432C43.9215 54.7093 42.697 53.4848 42.697 51.9743V50.1513C42.697 48.6408 43.9215 47.4163 45.432 47.4163H45.432Z" fill="#377DFF"/>
<path opacity="0.3" fill-rule="evenodd" clip-rule="evenodd" d="M29.025 36.4783H36.317C37.8275 36.4783 39.052 37.7028 39.052 39.2133V51.9743C39.052 53.4848 37.8275 54.7093 36.317 54.7093H29.025C27.5145 54.7093 26.29 53.4848 26.29 51.9743V39.2133C26.29 37.7028 27.5145 36.4783 29.025 36.4783L29.025 36.4783ZM45.432 25.5403H52.724C54.2345 25.5403 55.459 26.7648 55.459 28.2753V41.0403C55.459 42.5508 54.2345 43.7753 52.724 43.7753H45.432C43.9215 43.7753 42.697 42.5508 42.697 41.0403V28.2753C42.697 26.7648 43.9215 25.5403 45.432 25.5403H45.432Z" fill="#377DFF"/>
</svg>
