<svg width="104" height="31" viewBox="0 0 104 31" fill="none" xmlns="http://www.w3.org/2000/svg">
<path d="M0.526456 0.90909H8.11168L16.123 20.4545H16.464L24.4753 0.90909H32.0605V30H26.0946V11.0653H25.8532L18.3248 29.858H14.2623L6.73384 10.9943H6.49237V30H0.526456V0.90909ZM52.5826 29.0199C50.9538 29.9574 49.0504 30.4261 46.8723 30.4261C44.6943 30.4261 42.7909 29.9574 41.1621 29.0199C39.5333 28.0824 38.2881 26.7661 37.4263 25.071C36.5646 23.3665 36.1337 21.4015 36.1337 19.1761C36.1337 15.7765 37.0996 13.0492 39.0314 10.9943C40.9727 8.92992 43.5864 7.89773 46.8723 7.89773C50.1583 7.89773 52.7672 8.92992 54.699 10.9943C56.6403 13.0492 57.611 15.7765 57.611 19.1761C57.611 21.4015 57.1801 23.3665 56.3184 25.071C55.4566 26.7661 54.2114 28.0824 52.5826 29.0199ZM46.9007 25.7386C48.3591 25.7386 49.4812 25.1326 50.2672 23.9205C51.0627 22.6989 51.4604 21.1032 51.4604 19.1335C51.4604 17.1638 51.0627 15.5682 50.2672 14.3466C49.4812 13.125 48.3591 12.5142 46.9007 12.5142C45.4235 12.5142 44.2824 13.125 43.4775 14.3466C42.682 15.5587 42.2843 17.1544 42.2843 19.1335C42.2843 21.1032 42.682 22.6989 43.4775 23.9205C44.2824 25.1326 45.4235 25.7386 46.9007 25.7386ZM81.1444 8.18182L73.5165 30H66.6983L59.0705 8.18182H65.4625L69.9938 23.7926H70.2211L74.7381 8.18182H81.1444ZM93.4419 30.4261C90.0897 30.4261 87.4476 29.4223 85.5158 27.4148C83.584 25.3977 82.6181 22.6562 82.6181 19.1903C82.6181 16.965 83.0489 15 83.9107 13.2955C84.7819 11.5814 86.0177 10.2557 87.6181 9.31818C89.2279 8.37121 91.0887 7.89773 93.2005 7.89773C94.6588 7.89773 96.0035 8.13447 97.2346 8.60795C98.4751 9.07197 99.5594 9.75379 100.487 10.6534C101.415 11.5436 102.14 12.7036 102.661 14.1335C103.191 15.554 103.456 17.1686 103.456 18.9773V20.6392H88.5982V20.6534C88.5982 22.2727 89.0433 23.5559 89.9334 24.5028C90.8236 25.4403 92.0262 25.9091 93.5414 25.9091C94.5641 25.9091 95.44 25.696 96.1692 25.2699C96.9078 24.8343 97.4287 24.2045 97.7317 23.3807L103.328 23.75C102.893 25.7955 101.804 27.4195 100.061 28.6222C98.3188 29.8248 96.1124 30.4261 93.4419 30.4261ZM88.5982 16.8892H97.7601C97.7507 15.5824 97.3293 14.5123 96.4959 13.679C95.6721 12.8362 94.6067 12.4148 93.2999 12.4148C91.9836 12.4148 90.8851 12.8456 90.0044 13.7074C89.1332 14.5597 88.6645 15.6203 88.5982 16.8892Z" fill="#333333"/>
</svg>
